<svg width="24" height="24" viewBox="0 0 24 24" fill="none" xmlns="http://www.w3.org/2000/svg">
<path fill-rule="evenodd" clip-rule="evenodd" d="M20.9808 6.18334H22.2714C22.6738 6.18334 23 6.50955 23 6.91195C23 7.31435 22.6738 7.64056 22.2714 7.64056H20.9808V9.15249C20.9808 9.57549 20.6379 9.9184 20.2149 9.9184C19.7919 9.9184 19.449 9.57549 19.449 9.15249V7.64056H18.1534C17.751 7.64056 17.4248 7.31435 17.4248 6.91195C17.4248 6.50955 17.751 6.18334 18.1534 6.18334H19.449V4.76591C19.449 4.34291 19.7919 4 20.2149 4C20.6379 4 20.9808 4.34291 20.9808 4.76591V6.18334ZM1.25 8.78811C1.25 7.14931 2.57851 5.8208 4.2173 5.8208H14.5542C14.9684 5.8208 15.3042 6.15659 15.3042 6.5708C15.3042 6.98501 14.9684 7.3208 14.5542 7.3208H4.2173C3.40693 7.3208 2.75 7.97774 2.75 8.78811V16.5647C2.75 17.3751 3.40693 18.032 4.2173 18.032H18.9833C19.7936 18.032 20.4506 17.3751 20.4506 16.5647V11.7927C20.4506 11.3785 20.7864 11.0427 21.2006 11.0427C21.6148 11.0427 21.9506 11.3785 21.9506 11.7927V16.5647C21.9506 18.2035 20.6221 19.532 18.9833 19.532H4.2173C2.57851 19.532 1.25 18.2035 1.25 16.5647V8.78811ZM14.354 13.5565C14.354 13.7374 14.3122 13.8927 14.2288 14.0226C14.1662 14.1223 14.0827 14.1721 13.9783 14.1721C13.8786 14.1721 13.8033 14.1432 13.7522 14.0852C13.6734 13.9971 13.6444 13.8684 13.6653 13.6991C13.6815 13.5577 13.6456 13.4313 13.5575 13.32C13.4693 13.2087 13.3546 13.1437 13.2131 13.1252C13.0717 13.109 12.9453 13.1449 12.834 13.233C12.7227 13.3211 12.6577 13.4359 12.6392 13.5774C12.623 13.7188 12.6241 13.8591 12.6427 13.9982C12.6102 14.0585 12.5719 14.1014 12.5279 14.1269C12.4954 14.1455 12.4572 14.1548 12.4131 14.1548C12.3667 14.1548 12.3227 14.1466 12.2809 14.1304C12.2276 14.1119 12.1812 14.0806 12.1418 14.0365C12.0421 13.9252 11.9922 13.742 11.9922 13.4869C11.9922 12.9235 12.3262 12.2185 12.994 11.3721C13.045 11.3049 13.0786 11.2307 13.0948 11.1495C13.3685 11.4208 13.6015 11.6991 13.794 11.9843C14.1673 12.5408 14.354 13.0649 14.354 13.5565ZM15.3835 13.5565C15.3835 12.8539 15.1389 12.1385 14.6496 11.4104C14.1951 10.7333 13.5841 10.1235 12.8166 9.58085C12.7006 9.49737 12.5731 9.46722 12.434 9.49041C12.2925 9.51592 12.1812 9.58664 12.1001 9.70258C12.0166 9.81853 11.9876 9.94606 12.0131 10.0852C12.0363 10.2266 12.1059 10.3379 12.2218 10.4191C12.2867 10.4655 12.3517 10.5142 12.4166 10.5652C12.3238 10.5977 12.2462 10.6533 12.1835 10.7321C11.3673 11.7664 10.9592 12.6846 10.9592 13.4869C10.9592 13.8 11.0125 14.0782 11.1192 14.3217C11.198 14.5049 11.3047 14.6626 11.4392 14.7948C11.7082 15.0545 12.0328 15.1843 12.4131 15.1843C12.696 15.1843 12.9464 15.1032 13.1644 14.9408C13.3963 15.1171 13.6676 15.2052 13.9783 15.2052C14.463 15.2052 14.8375 14.9942 15.1018 14.5721C15.2896 14.273 15.3835 13.9345 15.3835 13.5565ZM9.62842 15.2713C9.72581 15.3756 9.84523 15.429 9.98668 15.4313H10.0006C10.142 15.4313 10.2626 15.3826 10.3623 15.2852C10.462 15.1878 10.5142 15.0695 10.5189 14.9304C10.5374 14.1721 10.491 13.3756 10.3797 12.5408C10.2336 11.4672 10.0029 10.6579 9.68755 10.113C9.61799 9.9878 9.51364 9.90664 9.37451 9.86954C9.2377 9.83244 9.10784 9.84983 8.98494 9.92171C8.86204 9.9936 8.78204 10.0979 8.74494 10.2348C8.70784 10.3716 8.72407 10.5014 8.79364 10.6243C9.03712 11.0487 9.22378 11.7246 9.35364 12.6521C9.46031 13.4406 9.50436 14.1907 9.48581 14.9026C9.48349 15.044 9.53103 15.1669 9.62842 15.2713Z" fill="#FDC13C"/>
</svg>
