<?xml version="1.0" encoding="utf-8"?>
<!-- Svg Vector Icons : http://www.onlinewebfonts.com/icon -->
<!DOCTYPE svg PUBLIC "-//W3C//DTD SVG 1.1//EN" "http://www.w3.org/Graphics/SVG/1.1/DTD/svg11.dtd">
<svg version="1.1" xmlns="http://www.w3.org/2000/svg" xmlns:xlink="http://www.w3.org/1999/xlink" x="0px" y="0px" viewBox="0 0 256 256" enable-background="new 0 0 256 256" xml:space="preserve">
<metadata> Svg Vector Icons : http://www.onlinewebfonts.com/icon </metadata>
<g><g><path fill="#000000" d="M108.1,75.7c-2.8-2.8-9.5-4.7-9.5,0.7v103c0,5.5,6.7,3.5,9.5,0.7l64.6-47.1c2.8-2.8,2.8-7.4,0-10.2L108.1,75.7z"/><path fill="#000000" d="M128,10C62.9,10,10,62.9,10,128c0,65.1,52.9,118,118,118c65.1,0,118-52.9,118-118C246,62.9,193.1,10,128,10z M128,240.7c-62.1,0-112.7-50.5-112.7-112.7C15.3,65.9,65.9,15.3,128,15.3c62.1,0,112.7,50.6,112.7,112.7C240.7,190.1,190.1,240.7,128,240.7z"/></g></g>
</svg>