<svg class="svg-icon" style="width: 1em; height: 1em;vertical-align: middle;fill: currentColor;overflow: hidden;" viewBox="0 0 1024 1024" version="1.1" xmlns="http://www.w3.org/2000/svg"><path d="M836.48 867.2l22.08-122.752c20.224-112.832 33.504-188.672 35.776-204.704 6.144-44.352-2.048-52.576-48.736-51.584-16.736 0.32-57.28 0.608-114.752 0.736-26.784 0.064-55.424 0.128-84.064 0.128h-38.208c-24.48 0-39.968-26.464-28.16-48.064 0.8-1.408 2.592-5.184 5.12-11.328 4.512-10.944 9.088-24.32 13.376-40 12.576-45.888 20.16-101.44 20.16-166.592 0-56.384-26.752-92.544-54.944-94.144-27.2-1.536-51.392 32-51.392 103.872 0 96.384-42.72 169.6-112.768 220.864a345.824 345.824 0 0 1-86.272 46.496v394.976h517.728l5.056-27.872V867.2zM278.336 959.84H100.8C80.48 959.84 64 945.28 64 927.328V468.864c0-17.952 16.48-32.512 36.832-32.512h197.44l2.336-0.96a288.32 288.32 0 0 0 61.536-34.176c54.432-39.904 86.336-94.464 86.336-168.416 0-104.96 48.768-172.672 119.232-168.64 65.92 3.776 115.648 70.912 115.648 158.88 0 71.072-8.352 132.384-22.496 183.808-1.664 6.176-3.328 11.936-5.056 17.312 25.568 0 50.976-0.064 74.848-0.128v0.032c56.96-0.128 97.44-0.32 113.6-0.704 84.544-1.792 125.664 39.52 113.696 125.44-2.4 17.344-15.584 92.416-36.16 207.232-9.696 54.176-19.424 108.32-29.248 162.496l-2.016 10.976-0.512 2.88c-2.976 16.416-16.32 27.616-31.808 27.616H281.568a32.32 32.32 0 0 1-3.232-0.16z m-28.928-64.96V501.312H137.6v393.504h111.776z" fill="white" /></svg>